<svg version="1.1" xmlns="http://www.w3.org/2000/svg" xmlns:xlink="http://www.w3.org/1999/xlink" width="171.86587" height="73.56446" viewBox="0,0,171.86587,73.56446"><defs><linearGradient x1="107.19643" y1="209.91572" x2="107.19643" y2="220.54674" gradientUnits="userSpaceOnUse" id="color-1"><stop offset="0" stop-color="#ededed" stop-opacity="0.23137"/><stop offset="1" stop-color="#ffffff" stop-opacity="0.45098"/></linearGradient><linearGradient x1="41.09734" y1="253.05439" x2="41.09734" y2="268.35456" gradientUnits="userSpaceOnUse" id="color-2"><stop offset="0" stop-color="#ededed" stop-opacity="0.40784"/><stop offset="1" stop-color="#ffffff" stop-opacity="0.63529"/></linearGradient></defs><g transform="translate(-22.34475,-209.55883)"><g stroke-miterlimit="10"><path d="M22.54147,230.44119v-20.88235h171.05381v20.88235z" fill="#a8d6ed" stroke="none" stroke-width="0"/><path d="M22.40472,217.98545v-8.06973h169.58344v8.06973c0,0 -60.20004,3.84194 -89.06936,3.84194c-27.60152,0 -80.51407,-3.84194 -80.51407,-3.84194z" fill="url(#color-1)" stroke="none" stroke-width="0"/><text transform="translate(28.28833,223.15841) scale(0.27375,0.27375)" font-size="40" xml:space="preserve" fill="#02367d" stroke="none" stroke-width="1" font-family="&quot;Lucida&quot;, Sans Serif" font-weight="normal" text-anchor="start"><tspan x="0" dy="0">Consulter les enregistrements</tspan></text><path d="M22.84475,282.6233v-34.67302h170.86587v34.67302z" fill="#fff7c3" stroke="#000000" stroke-width="1"/><text transform="translate(58.81635,267.43811) scale(0.19118,0.19118)" font-size="40" xml:space="preserve" fill="#000000" stroke="none" stroke-width="1" font-family="&quot;Lucida&quot;, Sans Serif" font-weight="normal" text-anchor="start"><tspan x="0" dy="0">user638264836782</tspan></text><text transform="translate(58.58672,257.76268) scale(0.15408,0.15408)" font-size="40" xml:space="preserve" fill-opacity="0.44314" fill="#000000" stroke="none" stroke-width="1" font-family="&quot;Lucida&quot;, Sans Serif" font-weight="normal" text-anchor="start"><tspan x="0" dy="0">Compte</tspan></text><text transform="translate(59.20592,277.44402) scale(0.1795,0.1795)" font-size="40" xml:space="preserve" fill="#000000" stroke="none" stroke-width="1" font-family="&quot;Lucida&quot;, Sans Serif" font-weight="normal" text-anchor="start"><tspan x="0" dy="0">Connecté pour les statistiques</tspan></text><path d="M27.91566,278.59369v-26.42857h26.42857v26.42857z" fill="#b8eaed" stroke="#000000" stroke-width="1"/><path d="M28.61391,264.66837v-11.61396h24.96687v11.61397c0,0 -5.80937,3.68395 -12.73151,3.68395c-6.3538,0 -12.23535,-3.68395 -12.23535,-3.68395z" fill="url(#color-2)" stroke="none" stroke-width="0"/><text transform="translate(37.13182,272.03397) scale(0.5,0.5)" font-size="40" xml:space="preserve" fill="#000000" stroke="none" stroke-width="1" font-family="&quot;Lucida&quot;, Sans Serif" font-weight="normal" text-anchor="start"><tspan x="0" dy="0">?</tspan></text></g></g></svg>