<svg version="1.1" xmlns="http://www.w3.org/2000/svg" xmlns:xlink="http://www.w3.org/1999/xlink" width="216.62564" height="56.66667" viewBox="0,0,216.62564,56.66667"><defs><linearGradient x1="28.81354" y1="237.99137" x2="28.81354" y2="253.29155" gradientUnits="userSpaceOnUse" id="color-1"><stop offset="0" stop-color="#ededed" stop-opacity="0.40784"/><stop offset="1" stop-color="#ffffff" stop-opacity="0.63529"/></linearGradient></defs><g transform="translate(-0.22061,-223.13545)"><g stroke-miterlimit="10"><path d="M0.72061,279.30211v-55.66666h215.62564v55.66667z" fill="#fffcda" stroke="#000000" stroke-width="1"/><text transform="translate(53.78352,246.52671) scale(0.30873,0.30873)" font-size="40" xml:space="preserve" fill="#000000" stroke="none" stroke-width="1" font-family="&quot;Lucida&quot;, Sans Serif" font-weight="normal" text-anchor="start"><tspan x="0" dy="0">Saisir le numéro</tspan><tspan x="0" dy="48px">de série...</tspan></text><path d="M15.63186,263.53067v-26.42857h26.42857v26.42857z" fill="#bbe7ec" stroke="#000000" stroke-width="1"/><text transform="translate(19.13916,245.56086) scale(0.18927,0.18927)" font-size="40" xml:space="preserve" fill="#425355" stroke="none" stroke-width="1" font-family="&quot;Lucida&quot;, Sans Serif" font-weight="normal" text-anchor="start"><tspan x="0" dy="0">2048</tspan></text><text transform="translate(19.22674,253.01707) scale(0.18927,0.18927)" font-size="40" xml:space="preserve" fill="#425355" stroke="none" stroke-width="1" font-family="&quot;Lucida&quot;, Sans Serif" font-weight="normal" text-anchor="start"><tspan x="0" dy="0">2096</tspan></text><path d="M16.33011,249.60534v-11.61396h24.96687v11.61397c0,0 -5.80937,3.68395 -12.73151,3.68395c-6.3538,0 -12.23535,-3.68395 -12.23535,-3.68395z" fill="url(#color-1)" stroke="none" stroke-width="0"/><text transform="translate(187.30805,256.83544) scale(0.5,0.5)" font-size="40" xml:space="preserve" fill="#000000" stroke="#000000" stroke-width="3" font-family="&quot;Lucida&quot;, Sans Serif" font-weight="normal" text-anchor="start"><tspan x="0" dy="0">&gt;</tspan></text><text transform="translate(19.39354,260.23559) scale(0.18927,0.18927)" font-size="40" xml:space="preserve" fill="#425355" stroke="none" stroke-width="1" font-family="&quot;Lucida&quot;, Sans Serif" font-weight="normal" text-anchor="start"><tspan x="0" dy="0">2012</tspan></text></g></g></svg>